<svg xmlns="http://www.w3.org/2000/svg" xmlns:xlink="http://www.w3.org/1999/xlink" width="500" zoomAndPan="magnify" viewBox="0 0 375 374.999991" height="500" preserveAspectRatio="xMidYMid meet" version="1.0"><defs><g/></defs><rect x="-37.5" width="450" fill="#ffffff" y="-37.499999" height="449.999989" fill-opacity="1"/><rect x="-37.5" width="450" fill="#ffffff" y="-37.499999" height="449.999989" fill-opacity="1"/><rect x="-37.5" width="450" fill="#171810" y="-37.499999" height="449.999989" fill-opacity="1"/><g fill="#ff00ff" fill-opacity="1"><g transform="translate(30.567956, 193.55278)"><g><path d="M 5.097656 0 L 22.941406 0 L 22.941406 -62.453125 C 22.941406 -67.425781 26.894531 -71.375 31.863281 -71.375 L 94.316406 -71.375 L 94.316406 -89.21875 L 31.863281 -89.21875 C 17.078125 -89.21875 5.097656 -77.238281 5.097656 -62.453125 Z M 31.863281 -31.863281 L 85.394531 -31.863281 L 85.394531 -49.707031 L 31.863281 -49.707031 Z M 31.863281 -31.863281 "/></g></g></g><g fill="#ff00ff" fill-opacity="1"><g transform="translate(129.977583, 193.55278)"><g><path d="M 5.097656 -21.667969 L 22.941406 -21.667969 L 22.941406 -52.257812 C 22.941406 -62.328125 32.121094 -71.375 42.1875 -71.375 L 67.679688 -71.375 L 67.679688 -89.21875 L 42.1875 -89.21875 C 22.304688 -89.21875 5.097656 -72.140625 5.097656 -52.257812 Z M 67.679688 0 L 85.394531 0 L 85.394531 -21.667969 L 94.316406 -21.667969 L 94.316406 -39.511719 L 85.394531 -39.511719 L 85.394531 -71.375 L 67.679688 -71.375 L 67.679688 -39.511719 L 31.992188 -39.511719 L 31.992188 -21.667969 L 67.679688 -21.667969 Z M 67.679688 0 "/></g></g></g><g fill="#ff00ff" fill-opacity="1"><g transform="translate(229.38721, 193.55278)"><g><path d="M 5.097656 -17.84375 L 22.941406 -17.84375 L 22.941406 -62.453125 C 22.941406 -67.425781 27.019531 -71.375 31.863281 -71.375 L 76.472656 -71.375 L 76.472656 -89.21875 L 31.863281 -89.21875 C 17.207031 -89.21875 5.097656 -77.238281 5.097656 -62.453125 Z M 22.941406 0 L 67.550781 0 C 82.335938 0 94.316406 -11.980469 94.316406 -26.765625 L 94.316406 -71.375 L 76.472656 -71.375 L 76.472656 -26.765625 C 76.472656 -21.796875 72.523438 -17.84375 67.550781 -17.84375 L 22.941406 -17.84375 Z M 22.941406 0 "/></g></g></g><g fill="#ff00ff" fill-opacity="1"><g transform="translate(328.796837, 193.55278)"><g><path d="M 5.097656 0 L 22.941406 0 L 22.941406 -17.84375 L 5.097656 -17.84375 Z M 5.097656 0 "/></g></g></g><g fill="#00ffff" fill-opacity="1"><g transform="translate(17.53624, 199.908766)"><g><path d="M 5.097656 0 L 22.941406 0 L 22.941406 -62.453125 C 22.941406 -67.425781 26.894531 -71.375 31.863281 -71.375 L 94.316406 -71.375 L 94.316406 -89.21875 L 31.863281 -89.21875 C 17.078125 -89.21875 5.097656 -77.238281 5.097656 -62.453125 Z M 31.863281 -31.863281 L 85.394531 -31.863281 L 85.394531 -49.707031 L 31.863281 -49.707031 Z M 31.863281 -31.863281 "/></g></g></g><g fill="#00ffff" fill-opacity="1"><g transform="translate(116.945867, 199.908766)"><g><path d="M 5.097656 -21.667969 L 22.941406 -21.667969 L 22.941406 -52.257812 C 22.941406 -62.328125 32.121094 -71.375 42.1875 -71.375 L 67.679688 -71.375 L 67.679688 -89.21875 L 42.1875 -89.21875 C 22.304688 -89.21875 5.097656 -72.140625 5.097656 -52.257812 Z M 67.679688 0 L 85.394531 0 L 85.394531 -21.667969 L 94.316406 -21.667969 L 94.316406 -39.511719 L 85.394531 -39.511719 L 85.394531 -71.375 L 67.679688 -71.375 L 67.679688 -39.511719 L 31.992188 -39.511719 L 31.992188 -21.667969 L 67.679688 -21.667969 Z M 67.679688 0 "/></g></g></g><g fill="#00ffff" fill-opacity="1"><g transform="translate(216.355494, 199.908766)"><g><path d="M 5.097656 -17.84375 L 22.941406 -17.84375 L 22.941406 -62.453125 C 22.941406 -67.425781 27.019531 -71.375 31.863281 -71.375 L 76.472656 -71.375 L 76.472656 -89.21875 L 31.863281 -89.21875 C 17.207031 -89.21875 5.097656 -77.238281 5.097656 -62.453125 Z M 22.941406 0 L 67.550781 0 C 82.335938 0 94.316406 -11.980469 94.316406 -26.765625 L 94.316406 -71.375 L 76.472656 -71.375 L 76.472656 -26.765625 C 76.472656 -21.796875 72.523438 -17.84375 67.550781 -17.84375 L 22.941406 -17.84375 Z M 22.941406 0 "/></g></g></g><g fill="#00ffff" fill-opacity="1"><g transform="translate(315.765121, 199.908766)"><g><path d="M 5.097656 0 L 22.941406 0 L 22.941406 -17.84375 L 5.097656 -17.84375 Z M 5.097656 0 "/></g></g></g><g fill="#dc3c4d" fill-opacity="1"><g transform="translate(24.052098, 196.730773)"><g><path d="M 5.097656 0 L 22.941406 0 L 22.941406 -62.453125 C 22.941406 -67.425781 26.894531 -71.375 31.863281 -71.375 L 94.316406 -71.375 L 94.316406 -89.21875 L 31.863281 -89.21875 C 17.078125 -89.21875 5.097656 -77.238281 5.097656 -62.453125 Z M 31.863281 -31.863281 L 85.394531 -31.863281 L 85.394531 -49.707031 L 31.863281 -49.707031 Z M 31.863281 -31.863281 "/></g></g></g><g fill="#dc3c4d" fill-opacity="1"><g transform="translate(123.461725, 196.730773)"><g><path d="M 5.097656 -21.667969 L 22.941406 -21.667969 L 22.941406 -52.257812 C 22.941406 -62.328125 32.121094 -71.375 42.1875 -71.375 L 67.679688 -71.375 L 67.679688 -89.21875 L 42.1875 -89.21875 C 22.304688 -89.21875 5.097656 -72.140625 5.097656 -52.257812 Z M 67.679688 0 L 85.394531 0 L 85.394531 -21.667969 L 94.316406 -21.667969 L 94.316406 -39.511719 L 85.394531 -39.511719 L 85.394531 -71.375 L 67.679688 -71.375 L 67.679688 -39.511719 L 31.992188 -39.511719 L 31.992188 -21.667969 L 67.679688 -21.667969 Z M 67.679688 0 "/></g></g></g><g fill="#dc3c4d" fill-opacity="1"><g transform="translate(222.871352, 196.730773)"><g><path d="M 5.097656 -17.84375 L 22.941406 -17.84375 L 22.941406 -62.453125 C 22.941406 -67.425781 27.019531 -71.375 31.863281 -71.375 L 76.472656 -71.375 L 76.472656 -89.21875 L 31.863281 -89.21875 C 17.207031 -89.21875 5.097656 -77.238281 5.097656 -62.453125 Z M 22.941406 0 L 67.550781 0 C 82.335938 0 94.316406 -11.980469 94.316406 -26.765625 L 94.316406 -71.375 L 76.472656 -71.375 L 76.472656 -26.765625 C 76.472656 -21.796875 72.523438 -17.84375 67.550781 -17.84375 L 22.941406 -17.84375 Z M 22.941406 0 "/></g></g></g><g fill="#dc3c4d" fill-opacity="1"><g transform="translate(322.280979, 196.730773)"><g><path d="M 5.097656 0 L 22.941406 0 L 22.941406 -17.84375 L 5.097656 -17.84375 Z M 5.097656 0 "/></g></g></g><g fill="#ff00ff" fill-opacity="1"><g transform="translate(44.896704, 288.945275)"><g><path d="M 76.472656 -17.84375 L 94.316406 -17.84375 L 94.316406 -62.453125 C 94.316406 -77.238281 82.335938 -89.21875 67.550781 -89.21875 L 22.941406 -89.21875 L 22.941406 -71.375 L 67.550781 -71.375 C 72.523438 -71.375 76.472656 -67.425781 76.472656 -62.453125 Z M 5.097656 0 L 76.472656 0 L 76.472656 -17.84375 L 22.941406 -17.84375 L 22.941406 -71.375 L 5.097656 -71.375 Z M 5.097656 0 "/></g></g></g><g fill="#ff00ff" fill-opacity="1"><g transform="translate(144.306331, 288.945275)"><g><path d="M 22.941406 -71.375 L 94.316406 -71.375 L 94.316406 -89.21875 L 22.941406 -89.21875 Z M 31.863281 0 L 94.316406 0 L 94.316406 -17.84375 L 31.863281 -17.84375 C 27.019531 -17.84375 22.941406 -21.796875 22.941406 -26.765625 L 22.941406 -71.375 L 5.097656 -71.375 L 5.097656 -26.765625 C 5.097656 -12.109375 17.207031 0 31.863281 0 Z M 31.738281 -35.6875 L 85.394531 -35.6875 L 85.394531 -53.53125 L 31.738281 -53.53125 Z M 31.738281 -35.6875 "/></g></g></g><g fill="#ff00ff" fill-opacity="1"><g transform="translate(243.715958, 288.945275)"><g><path d="M 49.707031 0 C 68.828125 0 74.433594 -18.863281 80.679688 -42.441406 C 83.101562 -52.128906 87.308594 -71.375 94.316406 -71.375 L 94.316406 -89.21875 C 74.816406 -89.21875 68.828125 -68.699219 63.347656 -46.777344 C 61.050781 -37.34375 56.589844 -16.570312 49.707031 -16.570312 C 42.953125 -16.570312 38.621094 -36.453125 35.941406 -46.777344 C 30.207031 -69.972656 23.960938 -89.21875 5.097656 -89.21875 L 5.097656 -71.375 C 11.980469 -71.375 16.316406 -52.386719 18.734375 -42.441406 C 23.960938 -21.285156 30.207031 0 49.707031 0 Z M 49.707031 0 "/></g></g></g><g fill="#00ffff" fill-opacity="1"><g transform="translate(31.864988, 295.301261)"><g><path d="M 76.472656 -17.84375 L 94.316406 -17.84375 L 94.316406 -62.453125 C 94.316406 -77.238281 82.335938 -89.21875 67.550781 -89.21875 L 22.941406 -89.21875 L 22.941406 -71.375 L 67.550781 -71.375 C 72.523438 -71.375 76.472656 -67.425781 76.472656 -62.453125 Z M 5.097656 0 L 76.472656 0 L 76.472656 -17.84375 L 22.941406 -17.84375 L 22.941406 -71.375 L 5.097656 -71.375 Z M 5.097656 0 "/></g></g></g><g fill="#00ffff" fill-opacity="1"><g transform="translate(131.274615, 295.301261)"><g><path d="M 22.941406 -71.375 L 94.316406 -71.375 L 94.316406 -89.21875 L 22.941406 -89.21875 Z M 31.863281 0 L 94.316406 0 L 94.316406 -17.84375 L 31.863281 -17.84375 C 27.019531 -17.84375 22.941406 -21.796875 22.941406 -26.765625 L 22.941406 -71.375 L 5.097656 -71.375 L 5.097656 -26.765625 C 5.097656 -12.109375 17.207031 0 31.863281 0 Z M 31.738281 -35.6875 L 85.394531 -35.6875 L 85.394531 -53.53125 L 31.738281 -53.53125 Z M 31.738281 -35.6875 "/></g></g></g><g fill="#00ffff" fill-opacity="1"><g transform="translate(230.684242, 295.301261)"><g><path d="M 49.707031 0 C 68.828125 0 74.433594 -18.863281 80.679688 -42.441406 C 83.101562 -52.128906 87.308594 -71.375 94.316406 -71.375 L 94.316406 -89.21875 C 74.816406 -89.21875 68.828125 -68.699219 63.347656 -46.777344 C 61.050781 -37.34375 56.589844 -16.570312 49.707031 -16.570312 C 42.953125 -16.570312 38.621094 -36.453125 35.941406 -46.777344 C 30.207031 -69.972656 23.960938 -89.21875 5.097656 -89.21875 L 5.097656 -71.375 C 11.980469 -71.375 16.316406 -52.386719 18.734375 -42.441406 C 23.960938 -21.285156 30.207031 0 49.707031 0 Z M 49.707031 0 "/></g></g></g><g fill="#dc3c4d" fill-opacity="1"><g transform="translate(38.380846, 292.123268)"><g><path d="M 76.472656 -17.84375 L 94.316406 -17.84375 L 94.316406 -62.453125 C 94.316406 -77.238281 82.335938 -89.21875 67.550781 -89.21875 L 22.941406 -89.21875 L 22.941406 -71.375 L 67.550781 -71.375 C 72.523438 -71.375 76.472656 -67.425781 76.472656 -62.453125 Z M 5.097656 0 L 76.472656 0 L 76.472656 -17.84375 L 22.941406 -17.84375 L 22.941406 -71.375 L 5.097656 -71.375 Z M 5.097656 0 "/></g></g></g><g fill="#dc3c4d" fill-opacity="1"><g transform="translate(137.790473, 292.123268)"><g><path d="M 22.941406 -71.375 L 94.316406 -71.375 L 94.316406 -89.21875 L 22.941406 -89.21875 Z M 31.863281 0 L 94.316406 0 L 94.316406 -17.84375 L 31.863281 -17.84375 C 27.019531 -17.84375 22.941406 -21.796875 22.941406 -26.765625 L 22.941406 -71.375 L 5.097656 -71.375 L 5.097656 -26.765625 C 5.097656 -12.109375 17.207031 0 31.863281 0 Z M 31.738281 -35.6875 L 85.394531 -35.6875 L 85.394531 -53.53125 L 31.738281 -53.53125 Z M 31.738281 -35.6875 "/></g></g></g><g fill="#dc3c4d" fill-opacity="1"><g transform="translate(237.2001, 292.123268)"><g><path d="M 49.707031 0 C 68.828125 0 74.433594 -18.863281 80.679688 -42.441406 C 83.101562 -52.128906 87.308594 -71.375 94.316406 -71.375 L 94.316406 -89.21875 C 74.816406 -89.21875 68.828125 -68.699219 63.347656 -46.777344 C 61.050781 -37.34375 56.589844 -16.570312 49.707031 -16.570312 C 42.953125 -16.570312 38.621094 -36.453125 35.941406 -46.777344 C 30.207031 -69.972656 23.960938 -89.21875 5.097656 -89.21875 L 5.097656 -71.375 C 11.980469 -71.375 16.316406 -52.386719 18.734375 -42.441406 C 23.960938 -21.285156 30.207031 0 49.707031 0 Z M 49.707031 0 "/></g></g></g></svg>